<svg id="Layer_1" data-name="Layer 1" xmlns="http://www.w3.org/2000/svg" viewBox="0 0 50 50"><defs><style>.cls-1{fill:#fff;}.cls-2{fill:#cb2026;}.cls-3{fill:#44494f;}.cls-4{fill:#231f20;stroke:#fff;stroke-miterlimit:10;stroke-width:0.15px;}</style></defs><title>Callout - Red</title><polygon class="cls-1" points="10.22 40.08 25.04 28.34 32.73 27.98 32.73 1.98 4.04 1.98 4.04 27.98 14.82 28.25 10.22 40.08"/><path class="cls-2" d="M47.11,36H37l4.38,13L37.9,45.48l-6.1-6.1L28.46,36H21.52l4.6-4.52h8a2.4,2.4,0,0,0,2.4-2.4V11.28H47.11Z"/><path class="cls-3" d="M7.83,43.32,13.72,29H2.89V1H33.66V29H25.25ZM4.5,27.38H16.13L11.77,38l12.9-10.61h7.38V2.61H4.5Z"/><path class="cls-4" d="M17.63,10.68v.92h.92v-.92Zm9.26,3.7v.93h.92v-.93Zm0,5.55v.93h.92v-.93ZM26,12.53v.92h1.85v-.92Zm-6.48,3.7v.93h.93v-.93Zm0,1.85v-.92h-.93V19h1.86v-.93ZM23.18,7V9.75H26V7ZM25,19v.92h1.85V19Zm-3.71-6.49v.93H20.4V9.75h-.92V7.9h.92V5.12h-.92V7h-.93V5.12H15.78V7h.92V6.05h.93V7.9h.92v2.78h.93v.92h-.93v1.85h-.92V11.6H16.7v-.92h-.92v1.85h.92v.92h-.92v2.78h.92V14.38h.93v1.85H16.7v.93h-.92v2.77h1.85V19H16.7v-.93h.93v-.92h.92v-.93h.93V14.38h2.78V12.52Zm2.78,4.64V19H25V17.16Zm0,3.7V19h-.93v-.93h-.92v1.85H19.48v.93h1.85v1.85h.93v.93h.92V21.78h3.71v-.92ZM25,14.38V12.53h-.93v2.78H21.33v.92h.93v.93h.92v-.93H25v.93H26V14.38ZM15.78,7.9v.93h1.85V7.9Zm2.77,13v-.93h-.92v.93H15.78v1.85h1.85v.93h.92V21.78h.93v-.92Zm2.78-3.7v.92h.93v-.92Zm-13-4.63v4.63H9.3V12.53Zm1.85,7.4v2.78H13V19.93Zm0,0v2.78H13V19.93Zm0,0v2.78H13V19.93ZM8.37,18.08v6.48h6.48V18.08Zm5.56,5.55H9.3V19h4.63ZM13,19.93H10.22v2.78H13Zm-2.78,0v2.78H13V19.93Zm0,0v2.78H13V19.93ZM23.18,7V9.75H26V7Zm0,0V9.75H26V7Zm0,0V9.75H26V7ZM21.33,5.12V11.6h6.48V5.12Zm5.56,5.56H22.26V6.05h4.63ZM26,7H23.18V9.75H26ZM23.18,7V9.75H26V7Zm0,0V9.75H26V7Zm-13,0V9.75H13V7Zm9.26,14.8v.93h.93v-.93Zm-9.26-1.85v2.78H13V19.93ZM10.22,7V9.75H13V7Zm0,0V9.75H13V7Zm0,0V9.75H13V7ZM8.37,5.12V11.6h6.48V5.12Zm5.56,5.56H9.3V6.05h4.63ZM13,7H10.22V9.75H13ZM10.22,7V9.75H13V7Zm0,0V9.75H13V7Zm0,5.55v1.85h.93v-.93h.93v-.92Zm2.78,0v.92h2.78v-.92Zm7.41,10.18v1.85h.92V22.71Zm2.77.92v.93h.93v-.93Zm-7.4,0v.93h1.85v-.93Zm11.11-.92v.92h.92v-.92Zm-13-8.33v.93h.92v-.93ZM25,22.71v.92H26v-.92ZM13.93,16.23v-.92H13v-.93H11.15v1.85h-.93v.93h4.63v-.93Z"/></svg>