<svg id="Layer_1" data-name="Layer 1" xmlns="http://www.w3.org/2000/svg" viewBox="0 0 50 50"><defs><style>.cls-1{fill:#fff;}.cls-2{fill:#cb2026;}.cls-3{fill:#848585;}.cls-4{fill:#44494f;}.cls-5{fill:#231f20;stroke:#fff;stroke-miterlimit:10;stroke-width:0.1px;}</style></defs><title>I</title><polygon class="cls-1" points="17.59 19.58 25.02 13.7 28.88 13.52 28.88 0.49 14.5 0.49 14.5 13.52 19.9 13.65 17.59 19.58"/><polygon class="cls-2" points="27.27 19.23 31.46 23.43 31.46 50 19.95 50 19.95 19.23 27.27 19.23"/><path class="cls-3" d="M36.08,17.56H31l2.2,6.49-1.77-1.76-3.05-3.06-1.68-1.67H23.25l2.31-2.27h4a1.2,1.2,0,0,0,1.2-1.2V5.15h5.33Z"/><path class="cls-4" d="M16.4,21.21l3-7.18H13.92V0H29.34V14H25.13Zm-1.67-8h5.83l-2.19,5.32,6.47-5.32h3.69V.81H14.73Z"/><path class="cls-5" d="M21.31,4.85v.46h.46V4.85ZM25.94,6.7v.47h.47V6.7Zm0,2.79V10h.47V9.49Zm-.46-3.71v.46h.93V5.78ZM22.23,7.63V8.1h.47V7.63Zm0,.93V8.1h-.46V9h.93V8.56ZM24.09,3v1.4h1.39V3ZM25,9v.47h.92V9ZM23.16,5.77v.47H22.7V4.38h-.47V3.46h.47V2.07h-.47V3h-.46V2.07H20.38V3h.46V2.53h.47v.93h.46V4.85h.46v.46h-.46v.93h-.46V5.31h-.47V4.85h-.46v.93h.46v.46h-.46V7.63h.46V6.7h.47v.93h-.47V8.1h-.46V9.49h.93V9h-.47V8.56h.47V8.1h.46V7.63h.46V6.7h1.4V5.77ZM24.55,8.1V9H25V8.1Zm0,1.85V9h-.46V8.56h-.46v.93h-1.4V10h.93v.93h.47v.46h.46v-.92h1.85V10ZM25,6.7V5.78h-.47V7.17H23.16v.46h.47V8.1h.46V7.63H25V8.1h.46V6.7ZM20.38,3.46v.46h.93V3.46ZM21.77,10V9.49h-.46V10h-.93v.93h.93v.46h.46v-.92h.46V10ZM23.16,8.1v.46h.47V8.1ZM16.67,5.78V8.1h.46V5.78Zm.93,3.71v1.39H19V9.49Zm0,0v1.39H19V9.49Zm0,0v1.39H19V9.49Zm-.93-.93v3.25h3.25V8.56Zm2.78,2.78H17.13V9h2.32ZM19,9.49H17.6v1.39H19Zm-1.39,0v1.39H19V9.49Zm0,0v1.39H19V9.49ZM24.09,3v1.4h1.39V3Zm0,0v1.4h1.39V3Zm0,0v1.4h1.39V3Zm-.93-.92V5.31h3.25V2.07Zm2.78,2.78H23.63V2.53h2.31ZM25.48,3H24.09v1.4h1.39ZM24.09,3v1.4h1.39V3Zm0,0v1.4h1.39V3ZM17.6,3v1.4H19V3Zm4.63,7.43v.46h.47v-.46ZM17.6,9.49v1.39H19V9.49Zm0-6.5v1.4H19V3Zm0,0v1.4H19V3Zm0,0v1.4H19V3Zm-.93-.92V5.31h3.25V2.07Zm2.78,2.78H17.13V2.53h2.32ZM19,3H17.6v1.4H19ZM17.6,3v1.4H19V3Zm0,0v1.4H19V3Zm0,2.79V6.7h.46V6.24h.46V5.78Zm1.39,0v.46h1.39V5.78Zm3.71,5.1v.93h.46v-.93Zm1.39.46v.47h.46v-.47Zm-3.71,0v.47h.93v-.47Zm5.56-.46v.46h.47v-.46ZM19.45,6.7v.47h.47V6.7ZM25,10.88v.46h.46v-.46ZM19.45,7.63V7.17H19V6.7h-.93v.93H17.6V8.1h2.32V7.63Z"/></svg>