<?xml version="1.0" encoding="utf-8"?>
<!-- Generator: Adobe Illustrator 21.0.2, SVG Export Plug-In . SVG Version: 6.00 Build 0)  -->
<svg version="1.1" id="Layer_1" xmlns="http://www.w3.org/2000/svg" xmlns:xlink="http://www.w3.org/1999/xlink" x="0px" y="0px"
	 viewBox="0 0 650 650" style="enable-background:new 0 0 650 650;" xml:space="preserve">
<style type="text/css">
	.st0{fill:url(#SVGID_1_);}
	.st1{fill:#FFFFFF;}
	.st2{fill:#CB2026;stroke:#CB2026;stroke-miterlimit:10;}
	.st3{fill:#44494F;stroke:#44494F;stroke-miterlimit:10;}
	.st4{fill:#CB2026;}
	.st5{fill:#848585;stroke:#FFFFFF;stroke-width:6;stroke-miterlimit:10;}
	.st6{fill:#FFFFFF;stroke:#44494E;stroke-width:6;stroke-miterlimit:10;}
	.st7{fill:#010101;}
	.st8{fill:#414042;}
	.st9{fill:#E6E7E8;}
	.st10{fill:url(#SVGID_2_);}
	.st11{fill:url(#SVGID_3_);}
</style>
<g>
	<g>
		<path class="st2" d="M102,495.8V487h4.9v8.8H102z M102,543.3v-41.1h4.9v41.1H102z"/>
		<path class="st3" d="M176.2,504.8v-1.1c0-6.1-4.9-11.2-11.2-11.3c-3.4-0.1-9.3-0.1-17.8-0.1h-0.6c-5.2,0-9.6,0-13,0.1
			c-6.2,0.1-11.2,5.2-11.2,11.3v23.1c0,6,4.1,10.9,13.4,11.4c-1.5-0.1,2.3-0.1,11.4-0.1c8.5,0,14.4,0,17.8-0.1
			c3.1-0.1,5.7-1.2,7.9-3.4s3.3-4.8,3.3-7.8v-0.1h5.2c0,0.6,0,1.4-0.1,2.3c-0.3,3.7-1.8,7-4.7,9.8c-2.9,2.7-6.1,4.2-9.9,4.4
			c-5.8,0.3-12.3,0.5-19.2,0.5h-0.2c-4.4,0-9.5-0.2-15.2-0.5c-3.8-0.2-7.1-1.7-9.9-4.5c-2.9-2.8-4.4-6-4.6-9.7
			c-0.3-4.6-0.4-8.9-0.4-13v-0.7c0-7.2,0.1-11.3,0.2-12.4c0.5-4.2,2-7.7,4.5-10.4c2.8-3.1,6.1-4.7,10.2-5c6-0.4,11.1-0.6,15.2-0.6
			c7.1,0,13.6,0.2,19.4,0.6c3.8,0.3,7.1,1.8,9.9,4.6c2.9,2.7,4.4,5.9,4.7,9.6c0.1,1.4,0.1,2.4,0.2,3.1H176.2z"/>
		<path class="st3" d="M240.1,522.6c0,5-0.1,8-0.2,9.1c-0.4,3.1-1.5,5.7-3.4,7.8c-1.9,2.3-4.5,3.5-7.6,3.7c-4,0.3-8.7,0.4-14.3,0.4
			c-5.8,0-10.6-0.1-14.4-0.4c-2.8-0.2-5.2-1.3-7.4-3.4c-2.1-2.1-3.3-4.5-3.5-7.2c-0.1-2.7-0.2-5.8-0.2-9.5v-0.5c0-5.5,0-8.5,0.1-9.1
			c0.3-3.1,1.4-5.7,3.3-7.8c2-2.3,4.6-3.6,7.7-3.8c4-0.3,8.7-0.4,14.1-0.4h0.3c5.8,0,10.5,0.1,14.3,0.4c2.8,0.2,5.2,1.4,7.4,3.5
			c2.1,2.1,3.3,4.5,3.5,7.2c0.2,2.7,0.3,5.9,0.3,9.8V522.6z M235,514.3c0-4.3-3.6-7.9-8-7.9l-12.6-0.1c-1.3,0-5.5,0-12.6,0.1
			c-4.4,0-8,3.6-8,7.9v16.4c0,4.3,3.6,7.9,8,7.9l12.6,0.1c-0.9,0,3.3,0,12.6-0.1c4.4,0,8-3.6,8-7.9V514.3z"/>
		<path class="st3" d="M292,543.2h-4.9v-28.9c0-4.3-3.5-7.9-7.9-7.9l-12.7-0.1h-2.3c-3.4,0.1-5.2,0.1-5.4,0.2
			c-4.1,0.4-7.3,3.4-7.3,7.4v29.3h-4.9v-41h4.9v2.2c1.9-1.5,4-2.4,6.1-2.5c4.3-0.3,7.2-0.4,8.7-0.4h0.2c5.8,0,10.6,0.1,14.4,0.4
			c2.8,0.2,5.2,1.4,7.4,3.5c2.1,2.1,3.4,4.4,3.5,7.1c0.1,2.6,0.2,6,0.2,10.1L292,543.2z"/>
		<path class="st3" d="M326.8,543.3h-5.7l-21.2-41.1h5.4l18.6,36l18.6-36h5.5L326.8,543.3z"/>
		<path class="st3" d="M408.4,522.5v2.4h-46v5.8c0,4.3,3.5,7.9,7.9,7.9l12.6,0.1c-0.8,0,3.4,0,12.7-0.1c4.4,0,7.9-3.6,7.9-7.9v-0.1
			h4.8c0,0.1,0,0.8-0.1,2.1c-0.1,2.7-1.3,5-3.5,7.1c-2.1,2.1-4.5,3.2-7.3,3.4c-3.8,0.3-8.5,0.4-14.3,0.4H383
			c-5.8,0-10.6-0.1-14.4-0.4c-2.8-0.2-5.2-1.3-7.4-3.4c-2.1-2.1-3.3-4.5-3.5-7.2c-0.1-2.7-0.2-5.8-0.2-9.5v-0.5c0-5.5,0-8.5,0.1-9.1
			c0.3-3.1,1.4-5.7,3.3-7.8c2-2.3,4.6-3.6,7.7-3.8c4-0.3,8.7-0.4,14.2-0.4h0.2c5.8,0,10.6,0.1,14.4,0.4c2.8,0.2,5.2,1.4,7.4,3.5
			c2.1,2.1,3.3,4.5,3.4,7.2c0.2,2.7,0.3,6,0.3,9.9H408.4z M403.5,520.1v-5.8c0-4.3-3.5-7.9-7.9-7.9l-12.7-0.1c-1.3,0-5.5,0-12.6,0.1
			c-4.4,0-7.9,3.6-7.9,7.9v5.8H403.5z"/>
		<path class="st3" d="M426.4,506c-0.7,0-1.5,0.2-2.5,0.6c-3.2,1.4-4.8,3.7-4.9,7c-0.1,1.8-0.1,3.4,0,4.8c0,0.9,0,1.4,0.1,1.6v23.3
			h-4.9l0.1-41.1h4.8v1.6c2.1-1.6,4.3-2.4,6.2-2.4h5.3v4.6H426.4z"/>
		<path class="st3" d="M437.8,543.4v-5.2l38.4-31.9h-37.8v-4.8h44.7v5.2l-38.4,31.9h39.8v4.8H437.8z"/>
		<path class="st3" d="M547.9,522.5v2.4h-46v5.8c0,4.3,3.5,7.9,7.9,7.9l12.6,0.1c-0.8,0,3.4,0,12.7-0.1c4.4,0,7.9-3.6,7.9-7.9v-0.1
			h4.8c0,0.1,0,0.8-0.1,2.1c-0.1,2.7-1.3,5-3.5,7.1c-2.1,2.1-4.5,3.2-7.3,3.4c-3.8,0.3-8.5,0.4-14.3,0.4h-0.1
			c-5.8,0-10.6-0.1-14.4-0.4c-2.8-0.2-5.2-1.3-7.4-3.4c-2.1-2.1-3.3-4.5-3.5-7.2c-0.1-2.7-0.2-5.8-0.2-9.5v-0.5c0-5.5,0-8.5,0.1-9.1
			c0.3-3.1,1.4-5.7,3.3-7.8c2-2.3,4.6-3.6,7.7-3.8c4-0.3,8.7-0.4,14.2-0.4h0.2c5.8,0,10.6,0.1,14.4,0.4c2.8,0.2,5.2,1.4,7.4,3.5
			c2.1,2.1,3.3,4.5,3.4,7.2c0.2,2.7,0.3,6,0.3,9.9H547.9z M543,520.1v-5.8c0-4.3-3.5-7.9-7.9-7.9l-12.7-0.1c-1.3,0-5.5,0-12.6,0.1
			c-4.4,0-7.9,3.6-7.9,7.9v5.8H543z"/>
	</g>
	<g>
		<rect x="284.4" y="246" class="st4" width="85.4" height="228.3"/>
		<path class="st5" d="M301.6,236.6h31.9l56.4,56.4l-19.1-56.4h36.3v-98.1h-45.5v69.3c0,3.3-2.6,5.9-5.9,5.9h-30.9L301.6,236.6z"/>
		<polygon class="st6" points="351.1,106.3 351.1,204.3 321.7,204.3 265.3,250.7 284.4,204.3 242.6,204.3 242.6,106.3 		"/>
		<g>
			<path class="st7" d="M277.2,156.5h3.4v3.4h3.4v3.4h-17.2v-3.4h3.4V153h6.9L277.2,156.5L277.2,156.5z M322,187.4h3.4V184H322
				V187.4z M280.7,156.5h3.4V153h-3.4V156.5z M328.9,187.4h3.4V184h-3.4V187.4z M287.6,190.9h6.9v-3.4h-6.9V190.9z M318.5,190.9
				v-3.4h-3.4v3.4H318.5z M304.8,190.9h3.4V184h-3.4V190.9z M277.2,146.1v3.4h10.3v-3.4H277.2z M273.8,149.6v-3.4h-6.9v6.9h3.4v-3.4
				H273.8z M284.1,142.7H260v-24.1h24.1V142.7z M280.7,122.1h-17.2v17.2h17.2V122.1z M266.9,184h10.3v-10.3h-10.3V184z M301.3,180.6
				v3.4h3.4v-3.4H301.3z M277.2,125.5h-10.3v10.3h10.3V125.5z M332.3,118.6v24.1h-24.1v-24.1H332.3z M328.9,122.1h-17.2v17.2h17.2
				V122.1z M260,166.8h24.1v24.1H260V166.8z M263.5,187.4h17.2v-17.2h-17.2V187.4z M263.5,146.1H260v17.2h3.4V146.1z M308.2,163.4
				v3.4h3.4v-3.4H308.2z M297.9,177.1v-3.4h-3.4v3.4h-6.9v6.9h6.9v3.4h3.4v-6.9h3.4v-3.4L297.9,177.1L297.9,177.1z M287.6,132.4h6.9
				v-3.4h-6.9V132.4z M315.1,159.9h6.9v3.4h3.4V153H322v-6.9h-3.4v10.3h-10.3v3.4h3.4v3.4h3.4L315.1,159.9L315.1,159.9L315.1,159.9z
				 M318.5,170.2h-3.4v-3.4h-3.4v6.9h-10.3v3.4h6.9v6.9h3.4v3.4h3.4v-6.9h13.8v-3.4h-10.3L318.5,170.2L318.5,170.2z M318.5,170.2
				h3.4v-6.9h-3.4V170.2z M291,170.2v-3.4h3.4v-3.4h3.4v-3.4h3.4V153h10.3v-6.9h-3.4v3.4h-3.4v-13.8h-3.4v-6.9h3.4v-10.3h-3.4v6.9
				h-3.4v-6.9h-10.3v6.9h3.4v-3.4h3.4v6.9h3.4v10.3h3.4v3.4h-3.4v6.9h-3.4v-6.9H291v-3.4h-3.4v6.9h3.4v3.4h-3.4v10.3h3.4V153h3.4
				v6.9H291v3.4h-3.4v10.3h6.9v-3.4H291z M328.9,173.7v-3.4H322v3.4H328.9z M325.4,125.5h-10.3v10.3h10.3V125.5z M297.9,170.2h6.9
				v-3.4h-3.4v-3.4h-3.4L297.9,170.2L297.9,170.2z M304.8,163.4v-3.4h-3.4v3.4H304.8z M325.4,149.6h6.9v-3.4h-6.9V149.6z
				 M328.9,177.1h3.4v-3.4h-3.4V177.1z M328.9,156.5h3.4V153h-3.4V156.5z M297.9,139.3h-3.4v3.4h3.4V139.3z"/>
		</g>
	</g>
</g>
</svg>
